<svg xmlns="http://www.w3.org/2000/svg" viewBox="0 0 64 64" width="64" height="64">
  <defs>
    <linearGradient id="g" x1="0" y1="0" x2="1" y2="1">
      <stop offset="0" stop-color="#34D399"/>
      <stop offset="1" stop-color="#10B981"/>
    </linearGradient>
  </defs>
  <rect width="64" height="64" rx="16" fill="url(#g)"/>
  <path d="M41 22.5c-2-2.4-5-3.7-8.4-3.7-5.6 0-9.6 3.1-9.6 7.6 0 4 2.7 6 8 7.2l2.8.7c3 .7 4.2 1.5 4.2 3 0 1.8-1.8 3-4.7 3-3 0-5.2-1.2-6.8-3.4l-4.7 3.3c2.3 3.3 6.1 5.2 11.2 5.2 6.2 0 10.5-3.1 10.5-7.9 0-4.2-2.8-6.3-8.4-7.6l-2.8-.6c-2.7-.6-3.8-1.4-3.8-2.8 0-1.7 1.6-2.8 4.2-2.8 2.6 0 4.6 1 6 2.9z" fill="#04130C"/>
</svg>
