<svg width="339" height="312" viewBox="0 0 339 312" fill="none" xmlns="http://www.w3.org/2000/svg">

<g id="Group 11" filter="url(#filter0_d_0_1)">
<path id="Subtract" d="M291.362 270.021C293.496 275.793 295.818 280.186 298.327 283.197C300.961 286.208 304.663 288.403 309.431 289.784C314.199 291.164 320.913 292.231 329.57 292.983V302.018H206.482V292.983C218.652 292.231 227.749 291.351 233.772 290.348C239.794 289.219 243.244 286.773 244.123 283.009C245.001 279.118 243.872 272.782 240.735 263.999L216.682 198.055H190.276C189.479 194.13 188.414 190.305 187.078 186.583H212.497L182.647 104.741V5H188.85L291.362 270.021ZM54.5002 290.601C54.3316 290.527 54.165 290.454 54.0011 290.381C54.1649 290.454 54.3316 290.527 54.5002 290.601ZM53.7697 290.276C53.5067 290.158 53.2497 290.041 53.0002 289.924H53.0011C53.2505 290.041 53.507 290.158 53.7697 290.276ZM90.7414 283.833C90.3578 283.838 89.9724 283.842 89.5851 283.842L90.7414 283.833ZM109.738 200.4C114.104 203.482 117.756 206.475 120.748 209.362L104.084 255.718C101.745 262.203 100.848 267.697 101.392 272.2C97.7949 272.742 93.8684 273.027 89.5851 273.027C86.861 273.027 84.2397 272.892 81.717 272.626C84.9728 267.234 88.1672 260.156 91.298 251.39L109.738 200.4ZM115.681 191.357C116.029 191.602 116.375 191.846 116.717 192.091H116.716C116.374 191.846 116.029 191.602 115.681 191.357ZM113.541 189.884C114.166 190.306 114.78 190.728 115.385 191.15C114.781 190.728 114.166 190.307 113.541 189.885V189.884ZM150.294 88.2607C151.94 92.8435 153.397 97.5438 154.577 102.241L156.503 109.904L146.189 138.597C142.53 136.213 138.662 133.906 134.595 131.67L150.294 88.2607Z" fill="url(#paint0_linear_0_1)"/>
<path id="Vector" d="M92.6715 301.888C82.3279 301.888 61.9489 295.499 52.8208 291.007C42.8581 286.103 36.8805 281.962 26.9179 281.962C14.9627 281.962 14.9627 301.888 14.9627 301.888H5V202.833H12.5505C20.1189 232.477 28.766 251.903 41.1279 265.274C53.6159 278.645 70.0774 285.329 90.5123 285.329C107.667 285.329 121.228 281.229 131.193 273.031C141.158 264.706 146.14 253.478 146.14 239.351C146.14 228.25 142.672 218.349 135.734 209.645C128.922 200.815 117.696 191.985 102.054 183.155L73.1048 167.829C49.5163 155.088 32.6134 142.412 22.396 129.797C12.1784 117.183 7.06972 102.488 7.06972 85.7111C7.06972 70.5742 10.7909 57.0771 18.2333 45.2198C25.6756 33.2364 35.8299 21.7742 48.6964 14.9627C61.6889 8.02489 74.3662 5 90.5123 5C138.6 7.36454 144.477 28.9104 158.425 23.6496C165.119 21.1247 166.395 5 166.395 5H173.198V100.109H166.395C160.466 76.5209 147.906 51.9053 136.68 40.6787C125.58 29.326 111.389 23.6496 94.1072 23.6496C80.1055 23.6496 69.0051 27.3707 60.8059 34.8131C52.7329 42.2554 48.6964 52.4728 48.6964 65.4654C48.6964 77.1965 52.5437 87.6663 60.2383 96.8746C68.0591 106.083 81.1778 115.543 99.5944 125.256L127.787 140.393C147.087 150.61 161.025 161.963 169.602 174.452C178.307 186.939 182.659 201.256 182.659 217.402C182.659 233.423 178.623 247.866 170.55 260.733C162.602 273.472 151.754 283.563 138.004 291.007C124.381 298.448 109.827 301.888 92.6715 301.888Z" fill="url(#paint1_linear_0_1)"/>
</g>
<defs>
<filter id="filter0_d_0_1" x="0" y="0" width="338.57" height="311.018" filterUnits="userSpaceOnUse" color-interpolation-filters="sRGB">
<feFlood flood-opacity="0" result="BackgroundImageFix"/>
<feColorMatrix in="SourceAlpha" type="matrix" values="0 0 0 0 0 0 0 0 0 0 0 0 0 0 0 0 0 0 127 0" result="hardAlpha"/>
<feOffset dx="2" dy="2"/>
<feGaussianBlur stdDeviation="3.5"/>
<feComposite in2="hardAlpha" operator="out"/>
<feColorMatrix type="matrix" values="0 0 0 0 0 0 0 0 0 0 0 0 0 0 0 0 0 0 0.48 0"/>
<feBlend mode="normal" in2="BackgroundImageFix" result="effect1_dropShadow_0_1"/>
<feBlend mode="normal" in="SourceGraphic" in2="effect1_dropShadow_0_1" result="shape"/>
</filter>
<linearGradient id="paint0_linear_0_1" x1="3.25299" y1="155.907" x2="329.569" y2="155.907" gradientUnits="userSpaceOnUse">
<stop stop-color="#72AEF4"/>
<stop offset="1" stop-color="#8AEBFB"/>
</linearGradient>
<linearGradient id="paint1_linear_0_1" x1="1.01493" y1="152.589" x2="182.659" y2="152.589" gradientUnits="userSpaceOnUse">
<stop stop-color="#72AEF4"/>
<stop offset="1" stop-color="#8AEBFB"/>
</linearGradient>
</defs>
</svg>
